<svg width="892" height="97" viewBox="0 0 892 97" fill="none" xmlns="http://www.w3.org/2000/svg">
<path d="M9.4375 44.125V26.6406H18.1562V44.125H9.4375ZM26.875 79V61.5625H0.71875V44.125H9.4375V52.8438H26.875V26.6406H18.1562V9.20312H26.875V0.484375H35.5938V52.8438H44.3594V61.5625H35.5938V79H26.875ZM61.8438 79V70.2812H88V79H61.8438ZM53.125 70.2812V9.20312H61.8438V70.2812H53.125ZM88 70.2812V9.20312H96.7656V70.2812H88ZM61.8438 9.20312V0.484375H88V9.20312H61.8438ZM114.25 44.125V26.6406H122.969V44.125H114.25ZM131.688 79V61.5625H105.531V44.125H114.25V52.8438H131.688V26.6406H122.969V9.20312H131.688V0.484375H140.406V52.8438H149.172V61.5625H140.406V79H131.688ZM184.094 52.8438V44.125H201.531V52.8438H184.094ZM280.047 35.4062V9.20312H288.766V35.4062H280.047ZM236.406 79V0.484375H280.047V9.20312H245.125V35.4062H280.047V44.125H245.125V79H236.406ZM297.531 70.2812V52.8438H306.25V70.2812H297.531ZM306.25 79V70.2812H332.406V52.8438H306.25V44.125H332.406V35.4062H341.172V79H306.25ZM306.25 35.4062V26.6406H332.406V35.4062H306.25ZM349.938 96.4375V87.7188H384.812V96.4375H349.938ZM349.938 70.2812V35.4062H358.656V70.2812H349.938ZM384.812 87.7188V79H358.656V70.2812H384.812V35.4062H358.656V26.6406H393.578V87.7188H384.812ZM411.062 79V70.2812H437.219V79H411.062ZM437.219 70.2812V61.5625H445.984V70.2812H437.219ZM402.344 70.2812V35.4062H411.062V44.125H437.219V35.4062H445.984V52.8438H411.062V70.2812H402.344ZM411.062 35.4062V26.6406H437.219V35.4062H411.062ZM515.781 79V35.4062H524.547V79H515.781ZM480.906 79V26.6406H489.625V35.4062H498.344V44.125H489.625V79H480.906ZM498.344 35.4062V26.6406H515.781V35.4062H498.344ZM542.031 79V70.2812H568.188V79H542.031ZM533.312 70.2812V35.4062H542.031V70.2812H533.312ZM568.188 70.2812V35.4062H576.953V70.2812H568.188ZM542.031 35.4062V26.6406H568.188V35.4062H542.031ZM594.438 79V70.2812H603.156V79H594.438ZM585.719 70.2812V9.20312H594.438V26.6406H603.156V35.4062H594.438V70.2812H585.719ZM638.031 79V0.484375H681.672V9.20312H646.75V35.4062H672.906V44.125H646.75V79H638.031ZM699.156 79V70.2812H725.312V79H699.156ZM690.438 70.2812V35.4062H699.156V70.2812H690.438ZM725.312 70.2812V35.4062H734.078V70.2812H725.312ZM699.156 35.4062V26.6406H725.312V35.4062H699.156ZM751.562 79V70.2812H769V79H751.562ZM742.844 70.2812V26.6406H751.562V70.2812H742.844ZM777.719 79V70.2812H769V61.5625H777.719V26.6406H786.484V79H777.719ZM830.125 79V35.4062H838.891V79H830.125ZM795.25 79V26.6406H803.969V35.4062H812.688V44.125H803.969V79H795.25ZM812.688 35.4062V26.6406H830.125V35.4062H812.688ZM847.656 70.2812V35.4062H856.375V70.2812H847.656ZM856.375 79V70.2812H882.531V35.4062H856.375V26.6406H882.531V0.484375H891.297V79H856.375Z" fill="#15181B"/>
</svg>
