<svg width="210" height="25" viewBox="0 0 210 25" fill="none" xmlns="http://www.w3.org/2000/svg">
<path d="M2.49219 20V17.8203H9.03125V20H2.49219ZM0.3125 17.8203V15.6406H2.49219V17.8203H0.3125ZM9.03125 17.8203V11.2812H11.2227V17.8203H9.03125ZM2.49219 11.2812V9.10156H9.03125V11.2812H2.49219ZM0.3125 9.10156V2.55078H2.49219V9.10156H0.3125ZM9.03125 4.73047V2.55078H11.2227V4.73047H9.03125ZM2.49219 2.55078V0.371094H9.03125V2.55078H2.49219ZM17.7734 20V17.8203H22.1328V20H17.7734ZM15.5938 17.8203V6.91016H17.7734V17.8203H15.5938ZM24.3125 20V17.8203H22.1328V15.6406H24.3125V6.91016H26.5039V20H24.3125ZM37.4141 17.8203V9.10156H39.6055V17.8203H37.4141ZM28.6953 24.3594V6.91016H37.4141V9.10156H30.875V17.8203H37.4141V20H30.875V24.3594H28.6953ZM43.9766 20V17.8203H50.5156V20H43.9766ZM41.7969 17.8203V9.10156H43.9766V17.8203H41.7969ZM50.5156 17.8203V9.10156H52.707V17.8203H50.5156ZM43.9766 9.10156V6.91016H50.5156V9.10156H43.9766ZM54.8984 20V6.91016H59.2578V9.10156H57.0781V20H54.8984ZM63.6172 20V17.8203H65.7969V20H63.6172ZM61.4375 17.8203V2.55078H63.6172V6.91016H65.7969V9.10156H63.6172V17.8203H61.4375ZM70.1562 20V17.8203H76.6953V20H70.1562ZM76.6953 17.8203V15.6406H78.8867V17.8203H76.6953ZM67.9766 17.8203V9.10156H70.1562V11.2812H76.6953V9.10156H78.8867V13.4609H70.1562V17.8203H67.9766ZM70.1562 9.10156V6.91016H76.6953V9.10156H70.1562ZM87.6172 17.8203V9.10156H89.7969V17.8203H87.6172ZM89.7969 20V17.8203H96.3359V9.10156H89.7969V6.91016H96.3359V0.371094H98.5273V20H89.7969ZM102.898 20V17.8203H109.438V20H102.898ZM109.438 17.8203V15.6406H111.629V17.8203H109.438ZM100.719 17.8203V9.10156H102.898V11.2812H109.438V9.10156H111.629V13.4609H102.898V17.8203H100.719ZM102.898 9.10156V6.91016H109.438V9.10156H102.898ZM129.078 17.8203V15.6406H131.27V17.8203H129.078ZM131.27 15.6406V4.73047H133.449V15.6406H131.27ZM129.078 4.73047V2.55078H131.27V4.73047H129.078ZM120.359 20V0.371094H129.078V2.55078H122.539V17.8203H129.078V20H120.359ZM140 20V17.8203H146.539V20H140ZM137.82 17.8203V9.10156H140V17.8203H137.82ZM146.539 17.8203V9.10156H148.73V17.8203H146.539ZM140 9.10156V6.91016H146.539V9.10156H140ZM157.461 20V9.10156H159.641V20H157.461ZM164.012 20V9.10156H166.191V20H164.012ZM150.922 20V6.91016H157.461V9.10156H153.102V20H150.922ZM159.641 9.10156V6.91016H164.012V9.10156H159.641ZM168.383 20V6.91016H170.562V20H168.383ZM168.383 2.55078V0.371094H170.562V2.55078H168.383ZM181.461 20V9.10156H183.652V20H181.461ZM172.742 20V6.91016H174.922V9.10156H177.102V11.2812H174.922V20H172.742ZM177.102 9.10156V6.91016H181.461V9.10156H177.102ZM185.844 24.3594V22.1797H194.562V24.3594H185.844ZM185.844 17.8203V9.10156H188.023V17.8203H185.844ZM194.562 22.1797V20H188.023V17.8203H194.562V9.10156H188.023V6.91016H196.754V22.1797H194.562ZM201.125 20V17.8203H207.664V20H201.125ZM198.945 17.8203V9.10156H201.125V17.8203H198.945ZM207.664 17.8203V9.10156H209.855V17.8203H207.664ZM201.125 9.10156V6.91016H207.664V9.10156H201.125Z" fill="#15181B"/>
</svg>
